<svg id="Isolation_Mode" data-name="Isolation Mode" xmlns="http://www.w3.org/2000/svg" viewBox="0 0 256.69 253.73"><defs><style>.cls-1{fill:#fff;}</style></defs><path class="cls-1" d="M181.31,35.1a17.22,17.22,0,0,0-17.76,25.74,19.92,19.92,0,0,1,2.4,14.8v0a34,34,0,0,1-15.3,21l-14.66,9V48.82A19.4,19.4,0,0,1,142,34.94a17.2,17.2,0,0,0,5.19-13.29c-.44-8.24-7.86-15.73-16.09-16.25A17.22,17.22,0,0,0,118.08,35a19.51,19.51,0,0,1,6,14V68.16l-10.32-6.31a34,34,0,0,1-15.31-21v0A19.9,19.9,0,0,1,100.85,26a17.22,17.22,0,1,0-23.22,6.27,19.59,19.59,0,0,1,9.56,12.48l.88,3.65a34,34,0,0,0,15.31,21l10.5,6.42A21.39,21.39,0,0,1,124.1,94.07V137.3l-13.88-6.75A34,34,0,0,1,93,111.07v0a19.92,19.92,0,0,1,1-15,17.22,17.22,0,1,0-22.51,8.46,19.6,19.6,0,0,1,10.71,11.51l1.23,3.54a34,34,0,0,0,17.25,19.48l11.49,5.59a21.39,21.39,0,0,1,12,19.22h0A19.4,19.4,0,0,1,118,177.76a17.18,17.18,0,0,0-5.19,13.3c.44,8.24,7.86,15.73,16.09,16.24A17.22,17.22,0,0,0,142,177.73a19.55,19.55,0,0,1-6-14V131.59a21.39,21.39,0,0,1,10.21-18.23L161,104.27a34,34,0,0,0,15.3-21l.88-3.65a19.57,19.57,0,0,1,9.55-12.49,17.21,17.21,0,0,0-5.46-32ZM88,25.3a8.31,8.31,0,1,1,6.13-10A8.32,8.32,0,0,1,88,25.3ZM81,96.63a8.31,8.31,0,1,1,5.15-10.57A8.31,8.31,0,0,1,81,96.63Zm49-82.35a8.31,8.31,0,1,1-8.31,8.31A8.32,8.32,0,0,1,130,14.28Zm0,184.14a8.31,8.31,0,1,1,8.31-8.3A8.31,8.31,0,0,1,130,198.42ZM186.44,54a8.3,8.3,0,1,1-6.13-10A8.32,8.32,0,0,1,186.44,54Z"/><path class="cls-1" d="M255.84,234.47,222,143.66a13.24,13.24,0,0,0-8.14-7.91c-12.68-4.32-43.28-12.19-71.93,0v5a68.81,68.81,0,0,1,29.37-6.12,103.1,103.1,0,0,1,32.11,5.49,3.92,3.92,0,0,1,2.41,2.35l30.75,86a3.86,3.86,0,0,1-1.9,4.89,23,23,0,0,1-9.39,1.69h0c-8.78,0-20.1-6.62-33.64-12.64-13.78-6.12-26.12-9.23-36.68-9.23-13.06,0-21.42,4.6-26.6,9.41-5.17-4.81-13.53-9.41-26.59-9.41-10.56,0-22.91,3.11-36.69,9.23C51.52,228.41,40.2,235,31.42,235a22.87,22.87,0,0,1-9.4-1.7,3.84,3.84,0,0,1-1.89-4.88l30.75-86a3.88,3.88,0,0,1,2.41-2.35,103.15,103.15,0,0,1,31.92-5.49,38.76,38.76,0,0,1-3.87-5.35,122.15,122.15,0,0,0-38.51,6.52,13.25,13.25,0,0,0-8.13,7.91L.84,234.47a13.17,13.17,0,0,0,6.77,16.61c8.74,3.94,25,5.07,54.68-8.11,39.22-17.43,55.94-6.73,62.41,1.16a4.69,4.69,0,0,0,7.28,0c6.48-7.89,23.2-18.59,62.42-1.16,29.64,13.18,45.92,12.06,54.66,8.11A13.15,13.15,0,0,0,255.84,234.47Z"/></svg>